<?xml version="1.0" encoding="UTF-8" standalone="no"?><!-- Generator: Gravit.io --><svg xmlns="http://www.w3.org/2000/svg" xmlns:xlink="http://www.w3.org/1999/xlink" style="isolation:isolate" viewBox="0 0 512 512" width="512pt" height="512pt"><defs><clipPath id="_clipPath_9ofjZym0uXuTzdfLlmbe4rMYZqjX7k0r"><rect width="512" height="512"/></clipPath></defs><g clip-path="url(#_clipPath_9ofjZym0uXuTzdfLlmbe4rMYZqjX7k0r)"><rect x="0" y="0" width="512" height="512" transform="matrix(1,0,0,1,0,0)" fill="rgb(145,92,7)"/><g><path d=" M 430.878 238.023 C 530.595 162.826 637.365 138.306 703.787 259.016 C 703.787 447.953 728.307 615.897 556.836 615.897 C 514.85 552.918 535.843 531.925 493.857 531.925 C 451.871 531.925 445.384 568.747 325.913 573.911 C 254.074 577.018 157.968 552.918 73.996 489.939 C 15.363 445.896 -93.948 342.988 -114.941 301.002 C -123.129 284.606 -106.985 202.523 -64.6 107.803 C -0.382 -35.538 52.331 -95.074 91.063 -139.852 C 150.663 -200.291 199.954 -223.824 220.947 -223.824 C 241.94 -223.824 368.381 -202.579 388.892 -181.838 C 409.885 -160.845 404.972 -149.782 409.885 -118.859 C 414.797 -87.936 404.888 -75.403 394.476 -56.363 C 390.865 -49.813 379.361 -36.692 369.284 -45.446 C 363.553 -35.223 341.321 -28.736 333.05 -42.843 C 325.178 -29.807 302.862 -35.622 297.866 -44.964 C 289.909 -32.578 272.674 -46.433 267.279 -51.87 C 262.468 -56.599 258.38 -62.01 255.145 -67.93 C 254.41 -68.665 244.984 -92.366 254.977 -94.591 C 233.816 -89.91 225.209 -94.591 210.283 -79.413 C 195.378 -64.319 155.68 -29.471 157.968 40.31 C 160.508 120.021 136.975 175.044 115.982 196.037 L 157.968 196.037 C 213.075 155.352 304.92 112.064 430.878 238.023 Z " fill="rgb(255,186,87)"/><path d=" M 703.787 259.016 C 637.365 138.306 530.595 162.826 430.878 238.023 C 430.878 238.023 474.669 307.153 495.662 412.118 C 516.655 307.153 598.822 238.023 703.787 259.016 Z  M 339.033 170.698 L 338.781 170.278 C 261.212 134.779 199.87 165.03 157.968 196.037 L 115.982 196.037 C 115.982 196.037 115.982 384.974 328.537 450.577 C 328.537 450.577 161.495 350.021 220.947 238.023 C 262.933 154.05 318.04 170.698 339.033 170.698 Z " fill="rgb(249,168,37)"/><path d=" M 533.219 314.122 L 493.857 301.002 C 493.857 301.002 480.085 281.163 493.857 363.981 C 509.602 458.45 454.495 526.677 320.664 529.301 C 320.664 529.301 174.868 524.536 -16.211 401.453 C 24.243 435.672 46.453 469.261 73.996 489.939 C 157.968 552.918 254.074 577.018 325.913 573.911 C 445.384 568.747 451.871 531.925 493.857 531.925 C 535.843 531.925 514.85 552.918 556.836 615.897 C 598.99 615.897 629.892 607.038 651.641 587.032 C 614.735 446.568 483.696 428.031 533.219 314.122 Z " fill="rgb(249,168,37)"/><path d=" M 73.996 489.939 C 103.072 511.723 134.785 529.745 168.381 543.576 C 208.897 546.431 254.074 543.492 304.92 531.925 C 152.72 505.684 86.046 404.162 31.59 352.834 C -88.364 239.744 -25.721 175.673 32.01 38.589 C 77.523 -69.567 93.604 -136.808 134.834 -179.466 C 128.683 -174.533 122.301 -169.137 115.814 -163.301 C 114.995 -162.567 114.261 -162 113.442 -161.265 C 105.776 -154.346 98.313 -147.206 91.063 -139.852 C 52.352 -95.074 -0.382 -35.538 -64.6 107.803 C -107.006 202.523 -123.129 284.606 -114.941 301.002 C -93.948 342.988 15.363 445.896 73.996 489.939 Z " fill="rgb(249,168,37)"/></g></g></svg>